<svg version="1.1" id="_x32_" xmlns="http://www.w3.org/2000/svg" xmlns:xlink="http://www.w3.org/1999/xlink" viewBox="0 0 512 512" xml:space="preserve" width="64px" height="64px" fill="#938BA1" stroke="#938BA1"><g id="SVGRepo_bgCarrier" stroke-width="0"></g><g id="SVGRepo_tracerCarrier" stroke-linecap="round" stroke-linejoin="round"></g><g id="SVGRepo_iconCarrier"> <style type="text/css"> .st0{fill:#938BA1;} </style> <g> <rect x="90.879" y="70.155" class="st0" width="8.216" height="45.845"></rect> <polygon class="st0" points="131.737,98.228 115.062,70.155 107.729,70.155 107.729,116 115.949,116 115.949,87.856 132.624,116 139.957,116 139.957,70.155 131.737,70.155 "></polygon> <polygon class="st0" points="145.457,78.132 156.455,78.132 156.455,116 164.671,116 164.671,78.132 175.669,78.132 175.669,70.155 145.457,70.155 "></polygon> <polygon class="st0" points="181.17,116 208.905,116 208.905,108.014 189.39,108.014 189.39,96.868 206.006,96.868 206.006,88.891 189.39,88.891 189.39,78.132 208.905,78.132 208.905,70.155 181.17,70.155 "></polygon> <path class="st0" d="M241.155,94.591c0.928-0.712,1.747-1.568,2.458-2.575c0.707-1.008,1.27-2.161,1.684-3.449 c0.414-1.287,0.621-2.746,0.621-4.384c0-1.927-0.306-3.737-0.918-5.439c-0.608-1.692-1.504-3.169-2.688-4.438 c-1.184-1.27-2.624-2.278-4.317-3.026c-1.697-0.756-3.61-1.125-5.735-1.125h-16.499V116h8.22V97.706h5.911l8.22,18.294h9.521 l-9.404-19.772C239.256,95.842,240.233,95.292,241.155,94.591z M236.073,88.567c-1.085,1.116-2.534,1.675-4.348,1.675h-7.743 v-12.11h7.743c1.814,0,3.264,0.559,4.348,1.674c1.08,1.116,1.625,2.575,1.625,4.376C237.698,85.992,237.153,87.45,236.073,88.567z"></path> <path class="st0" d="M277.201,92.817c-0.914-0.99-1.994-1.755-3.255-2.314c-1.26-0.558-2.859-0.99-4.79-1.296l-5.024-0.837 c-0.91-0.126-1.67-0.343-2.278-0.64c-0.612-0.306-1.134-0.666-1.567-1.098c-0.436-0.468-0.738-0.99-0.918-1.549 c-0.176-0.549-0.266-1.134-0.266-1.728c0-1.593,0.522-2.953,1.567-4.087c1.044-1.144,2.674-1.711,4.88-1.711 c1.382,0,2.836,0.18,4.376,0.55c1.535,0.36,2.958,1.234,4.258,2.602l5.2-5.6c-1.81-1.927-3.804-3.304-5.969-4.124 c-2.17-0.81-4.713-1.224-7.626-1.224c-2.291,0-4.34,0.351-6.149,1.035c-1.819,0.684-3.354,1.638-4.614,2.864 c-1.26,1.224-2.228,2.683-2.899,4.384c-0.671,1.693-1.004,3.566-1.004,5.637c0,3.898,1.004,6.906,3.016,9.012 c0.945,0.982,2.066,1.792,3.367,2.413c1.301,0.622,2.899,1.081,4.79,1.378l5.028,0.846c1.062,0.171,1.855,0.36,2.363,0.576 c0.513,0.217,0.986,0.54,1.418,0.964c0.869,0.946,1.301,2.215,1.301,3.799c0,1.846-0.626,3.26-1.891,4.25 c-1.26,0.99-3.133,1.485-5.614,1.485c-1.936,0-3.768-0.288-5.501-0.846c-1.738-0.55-3.273-1.557-4.61-3.025l-5.326,5.798 c2.048,2.278,4.326,3.854,6.834,4.736c2.498,0.882,5.348,1.323,8.54,1.323c2.21,0,4.268-0.315,6.181-0.936 c1.913-0.621,3.565-1.522,4.965-2.71c1.4-1.17,2.494-2.628,3.282-4.34c0.788-1.72,1.179-3.692,1.179-5.924 c0-2.062-0.252-3.907-0.765-5.537C279.168,95.311,278.344,93.933,277.201,92.817z"></path> <polygon class="st0" points="283.881,78.132 294.879,78.132 294.879,116 303.095,116 303.095,78.132 314.093,78.132 314.093,70.155 283.881,70.155 "></polygon> <path class="st0" d="M330.299,70.155L314.979,116h8.576l2.543-8.121h14.959l2.485,8.121h8.571l-15.374-45.845H330.299z M328.404,100.353l5.321-16.674l5.146,16.674H328.404z"></path> <polygon class="st0" points="353.005,78.132 364.003,78.132 364.003,116 372.219,116 372.219,78.132 383.217,78.132 383.217,70.155 353.005,70.155 "></polygon> <polygon class="st0" points="388.718,116 416.453,116 416.453,108.014 396.938,108.014 396.938,96.868 413.553,96.868 413.553,88.891 396.938,88.891 396.938,78.132 416.453,78.132 416.453,70.155 388.718,70.155 "></polygon> <path class="st0" d="M331.834,224.312c-7.252,0-13.104,2.422-17.566,7.257c-4.461,4.835-6.69,11.425-6.69,19.79v82.804 c0,8.364,2.228,14.919,6.69,19.655c4.461,4.735,10.314,7.112,17.566,7.112c7.248,0,13.055-2.377,17.422-7.112 c4.366-4.736,6.554-11.291,6.554-19.655v-82.804c0-8.365-2.188-14.955-6.554-19.79 C344.889,226.734,339.082,224.312,331.834,224.312z"></path> <path class="st0" d="M180.724,224.312c-7.436,0-13.567,2.512-18.398,7.527c-4.835,5.024-7.252,12.182-7.252,21.473 c0,8.923,2.323,15.99,6.974,21.185c4.641,5.204,10.872,7.806,18.677,7.806c7.433,0,13.564-2.503,18.399-7.527 c4.83-5.014,7.248-12.163,7.248-21.464c0-9.291-2.417-16.45-7.248-21.473C194.288,226.824,188.157,224.312,180.724,224.312z"></path> <path class="st0" d="M491.011,96.427c-10.791-33.322-25.975-63.367-43.829-88.09L441.168,0l-9.148,4.672 c-1.076,0.568-34.65,16.99-84.084,16.954c-25.529-0.009-55.308-4.321-87.424-17.377l-4.515-1.836l-4.511,1.836 c-32.12,13.056-61.894,17.368-87.428,17.377c-25.524,0-46.796-4.349-61.574-8.653c-7.388-2.152-13.15-4.294-16.998-5.87 c-1.922-0.784-3.368-1.432-4.296-1.855c-0.464-0.216-0.801-0.369-1.008-0.477l-0.203-0.1L70.833,0l-6.019,8.337 C46.964,33.052,31.78,63.105,20.99,96.427C10.207,129.758,3.833,166.384,3.833,204.19c0,23.138,2.391,46.718,7.64,70.226 c11.452,51.392,33.38,99.462,71.902,140.139c38.494,40.705,93.217,73.73,169.193,96.418l3.43,1.027l3.435-1.027 c75.976-22.688,130.698-55.713,169.193-96.418c38.521-40.677,60.45-88.746,71.902-140.139c5.25-23.508,7.64-47.088,7.64-70.226 C508.163,166.384,501.788,129.758,491.011,96.427z M237.734,279.522c-3.25,8.553-7.108,17.376-11.57,26.478l-42.096,85.875H144.76 l41.262-81.967c-2.418,0.927-4.879,1.584-7.392,1.954c-2.508,0.369-4.97,0.558-7.388,0.558c-6.69,0-13.199-1.351-19.515-4.051 c-6.32-2.684-11.898-6.546-16.728-11.56c-4.835-5.024-8.738-11.156-11.71-18.403c-2.975-7.248-4.46-15.522-4.46-24.813 c0-9.67,1.58-18.35,4.74-26.075c3.16-7.707,7.527-14.207,13.105-19.51c5.573-5.303,12.127-9.337,19.654-12.128 c7.528-2.791,15.658-4.177,24.395-4.177c8.734,0,16.868,1.351,24.396,4.042c7.527,2.692,14.081,6.644,19.654,11.849 c5.578,5.204,9.94,11.615,13.104,19.231c3.16,7.626,4.74,16.36,4.74,26.209C242.619,262.145,240.985,270.968,237.734,279.522z M392.053,334.443c0,9.48-1.629,17.89-4.88,25.227c-3.254,7.347-7.626,13.523-13.104,18.539 c-5.483,5.024-11.898,8.832-19.236,11.434c-7.347,2.602-15.014,3.898-23,3.898c-8.184,0-15.896-1.296-23.139-3.898 c-7.252-2.602-13.663-6.41-19.24-11.434c-5.573-5.016-9.994-11.192-13.244-18.539c-3.25-7.338-4.876-15.747-4.876-25.227V250.8 c0-9.48,1.625-17.88,4.876-25.227c3.25-7.347,7.671-13.523,13.244-18.538c5.578-5.025,11.988-8.834,19.24-11.435 c7.243-2.602,14.955-3.898,23.139-3.898c7.986,0,15.653,1.296,23,3.898c7.338,2.602,13.753,6.41,19.236,11.435 c5.479,5.014,9.85,11.19,13.104,18.538c3.251,7.347,4.88,15.747,4.88,25.227V334.443z M34.27,140.211 c2.525-12.505,5.731-24.679,9.526-36.4c8.904-27.542,21.059-52.581,35.01-73.568c14.707,5.753,45.156,15.324,85.253,15.351 c27.024,0,58.419-4.43,91.939-17.377c33.524,12.947,64.915,17.377,91.939,17.377c40.097-0.027,70.546-9.598,85.254-15.351 c13.951,20.986,26.11,46.034,35.015,73.568c3.795,11.731,7,23.903,9.521,36.4H34.27z"></path> </g> </g></svg>